<svg width="143" height="32" viewBox="0 0 143 32" fill="none" xmlns="http://www.w3.org/2000/svg">
<rect x="0.5" y="0.5" width="142" height="31" stroke="#2E7EA3" stroke-dasharray="5 5"/>
<path d="M19.4141 8.96875H20.5859C20.6901 8.96875 20.7422 9.02083 20.7422 9.125V22.875C20.7422 22.9792 20.6901 23.0312 20.5859 23.0312H19.4141C19.3099 23.0312 19.2578 22.9792 19.2578 22.875V9.125C19.2578 9.02083 19.3099 8.96875 19.4141 8.96875Z" fill="#2E7EA3"/>
<path d="M13.4375 15.2578H26.5625C26.6667 15.2578 26.7188 15.3099 26.7188 15.4141V16.5859C26.7188 16.6901 26.6667 16.7422 26.5625 16.7422H13.4375C13.3333 16.7422 13.2812 16.6901 13.2812 16.5859V15.4141C13.2812 15.3099 13.3333 15.2578 13.4375 15.2578Z" fill="#2E7EA3"/>
<path d="M36.6506 21H35.358L39.0966 10.8182H40.3693L44.108 21H42.8153L39.7727 12.429H39.6932L36.6506 21ZM37.1278 17.0227H42.3381V18.1165H37.1278V17.0227ZM48.4183 21.1591C47.782 21.1591 47.2202 20.9983 46.733 20.6768C46.2457 20.352 45.8646 19.8946 45.5895 19.3047C45.3144 18.7114 45.1768 18.0104 45.1768 17.2017C45.1768 16.3996 45.3144 15.7036 45.5895 15.1136C45.8646 14.5237 46.2474 14.0679 46.7379 13.7464C47.2285 13.425 47.7952 13.2642 48.4382 13.2642C48.9354 13.2642 49.3281 13.3471 49.6165 13.5128C49.9081 13.6752 50.1302 13.8608 50.2827 14.0696C50.4384 14.2751 50.5594 14.4441 50.6456 14.5767H50.745V10.8182H51.9183V21H50.7848V19.8267H50.6456C50.5594 19.9659 50.4368 20.1416 50.2777 20.3537C50.1186 20.5625 49.8916 20.7498 49.5966 20.9155C49.3016 21.0779 48.9089 21.1591 48.4183 21.1591ZM48.5774 20.1051C49.0481 20.1051 49.4458 19.9825 49.7706 19.7372C50.0954 19.4886 50.3423 19.1456 50.5114 18.7081C50.6804 18.2673 50.7649 17.7585 50.7649 17.1818C50.7649 16.6117 50.6821 16.1129 50.5163 15.6854C50.3506 15.2545 50.1054 14.9197 49.7805 14.6811C49.4557 14.4392 49.0547 14.3182 48.5774 14.3182C48.0803 14.3182 47.666 14.4458 47.3345 14.701C47.0064 14.9529 46.7595 15.2959 46.5938 15.7301C46.4313 16.161 46.3501 16.6449 46.3501 17.1818C46.3501 17.7254 46.433 18.2192 46.5987 18.6634C46.7678 19.1042 47.0163 19.4555 47.3445 19.7173C47.6759 19.9759 48.0869 20.1051 48.5774 20.1051ZM57.1136 21.1591C56.4773 21.1591 55.9155 20.9983 55.4283 20.6768C54.9411 20.352 54.5599 19.8946 54.2848 19.3047C54.0097 18.7114 53.8722 18.0104 53.8722 17.2017C53.8722 16.3996 54.0097 15.7036 54.2848 15.1136C54.5599 14.5237 54.9427 14.0679 55.4332 13.7464C55.9238 13.425 56.4905 13.2642 57.1335 13.2642C57.6307 13.2642 58.0234 13.3471 58.3118 13.5128C58.6035 13.6752 58.8255 13.8608 58.978 14.0696C59.1338 14.2751 59.2547 14.4441 59.3409 14.5767H59.4403V10.8182H60.6136V21H59.4801V19.8267H59.3409C59.2547 19.9659 59.1321 20.1416 58.973 20.3537C58.8139 20.5625 58.5869 20.7498 58.2919 20.9155C57.9969 21.0779 57.6042 21.1591 57.1136 21.1591ZM57.2727 20.1051C57.7434 20.1051 58.1411 19.9825 58.4659 19.7372C58.7907 19.4886 59.0376 19.1456 59.2067 18.7081C59.3757 18.2673 59.4602 17.7585 59.4602 17.1818C59.4602 16.6117 59.3774 16.1129 59.2116 15.6854C59.0459 15.2545 58.8007 14.9197 58.4759 14.6811C58.151 14.4392 57.75 14.3182 57.2727 14.3182C56.7756 14.3182 56.3613 14.4458 56.0298 14.701C55.7017 14.9529 55.4548 15.2959 55.2891 15.7301C55.1267 16.161 55.0455 16.6449 55.0455 17.1818C55.0455 17.7254 55.1283 18.2192 55.294 18.6634C55.4631 19.1042 55.7116 19.4555 56.0398 19.7173C56.3712 19.9759 56.7822 20.1051 57.2727 20.1051ZM67.4396 10.8182L70.4624 19.3892H70.5817L73.6044 10.8182H74.897L71.1584 21H69.8857L66.147 10.8182H67.4396ZM77.8601 21.179C77.3762 21.179 76.937 21.0878 76.5426 20.9055C76.1482 20.7199 75.835 20.4531 75.603 20.1051C75.371 19.7538 75.255 19.3295 75.255 18.8324C75.255 18.3949 75.3411 18.0402 75.5135 17.7685C75.6858 17.4934 75.9162 17.2779 76.2045 17.1222C76.4929 16.9664 76.8111 16.8504 77.1591 16.7741C77.5104 16.6946 77.8634 16.6316 78.218 16.5852C78.6821 16.5256 79.0582 16.4808 79.3466 16.451C79.6383 16.4179 79.8504 16.3632 79.983 16.2869C80.1188 16.2107 80.1868 16.0781 80.1868 15.8892V15.8494C80.1868 15.3589 80.0526 14.9777 79.7841 14.706C79.5189 14.4342 79.1162 14.2983 78.576 14.2983C78.0159 14.2983 77.5767 14.4209 77.2585 14.6662C76.9403 14.9115 76.7166 15.1733 76.5874 15.4517L75.4737 15.054C75.6726 14.59 75.9377 14.2287 76.2692 13.9702C76.6039 13.7083 76.9685 13.526 77.3629 13.4233C77.7607 13.3172 78.1518 13.2642 78.5362 13.2642C78.7815 13.2642 79.0632 13.294 79.3814 13.3537C79.7029 13.41 80.0128 13.5277 80.3111 13.7067C80.6127 13.8857 80.8629 14.1558 81.0618 14.517C81.2607 14.8783 81.3601 15.3622 81.3601 15.9688V21H80.1868V19.9659H80.1271C80.0476 20.1316 79.915 20.3089 79.7294 20.4979C79.5438 20.6868 79.2969 20.8475 78.9886 20.9801C78.6804 21.1127 78.3042 21.179 77.8601 21.179ZM78.0391 20.125C78.5031 20.125 78.8942 20.0339 79.2124 19.8516C79.5339 19.6693 79.7758 19.4339 79.9382 19.1456C80.1039 18.8572 80.1868 18.554 80.1868 18.2358V17.1619C80.1371 17.2216 80.0277 17.2763 79.8587 17.326C79.6929 17.3724 79.5007 17.4138 79.282 17.4503C79.0665 17.4834 78.8561 17.5133 78.6506 17.5398C78.4484 17.563 78.2843 17.5829 78.1584 17.5994C77.8535 17.6392 77.5684 17.7038 77.3033 17.7933C77.0414 17.8795 76.8293 18.0104 76.6669 18.1861C76.5078 18.3584 76.4283 18.5937 76.4283 18.892C76.4283 19.2997 76.5791 19.608 76.8807 19.8168C77.1856 20.0223 77.5717 20.125 78.0391 20.125ZM83.5016 21V13.3636H84.6351V14.517H84.7147C84.8539 14.1392 85.1058 13.8326 85.4703 13.5973C85.8349 13.362 86.2459 13.2443 86.7033 13.2443C86.7895 13.2443 86.8972 13.246 87.0265 13.2493C87.1557 13.2526 87.2535 13.2576 87.3198 13.2642V14.4574C87.28 14.4474 87.1889 14.4325 87.0463 14.4126C86.9071 14.3894 86.7596 14.3778 86.6039 14.3778C86.2327 14.3778 85.9012 14.4557 85.6096 14.6115C85.3212 14.764 85.0925 14.9761 84.9235 15.2479C84.7578 15.5163 84.6749 15.8229 84.6749 16.1676V21H83.5016ZM88.7106 21V13.3636H89.8839V21H88.7106ZM89.3072 12.0909C89.0785 12.0909 88.8813 12.013 88.7156 11.8572C88.5531 11.7015 88.4719 11.5142 88.4719 11.2955C88.4719 11.0767 88.5531 10.8894 88.7156 10.7337C88.8813 10.5779 89.0785 10.5 89.3072 10.5C89.5359 10.5 89.7314 10.5779 89.8938 10.7337C90.0595 10.8894 90.1424 11.0767 90.1424 11.2955C90.1424 11.5142 90.0595 11.7015 89.8938 11.8572C89.7314 12.013 89.5359 12.0909 89.3072 12.0909ZM94.28 21.179C93.7961 21.179 93.3569 21.0878 92.9625 20.9055C92.5681 20.7199 92.2549 20.4531 92.0229 20.1051C91.7909 19.7538 91.6749 19.3295 91.6749 18.8324C91.6749 18.3949 91.7611 18.0402 91.9334 17.7685C92.1058 17.4934 92.3361 17.2779 92.6245 17.1222C92.9128 16.9664 93.231 16.8504 93.579 16.7741C93.9303 16.6946 94.2833 16.6316 94.638 16.5852C95.102 16.5256 95.4782 16.4808 95.7665 16.451C96.0582 16.4179 96.2703 16.3632 96.4029 16.2869C96.5388 16.2107 96.6067 16.0781 96.6067 15.8892V15.8494C96.6067 15.3589 96.4725 14.9777 96.204 14.706C95.9389 14.4342 95.5362 14.2983 94.9959 14.2983C94.4358 14.2983 93.9966 14.4209 93.6784 14.6662C93.3603 14.9115 93.1365 15.1733 93.0073 15.4517L91.8936 15.054C92.0925 14.59 92.3577 14.2287 92.6891 13.9702C93.0239 13.7083 93.3884 13.526 93.7828 13.4233C94.1806 13.3172 94.5717 13.2642 94.9561 13.2642C95.2014 13.2642 95.4831 13.294 95.8013 13.3537C96.1228 13.41 96.4327 13.5277 96.731 13.7067C97.0326 13.8857 97.2828 14.1558 97.4817 14.517C97.6806 14.8783 97.78 15.3622 97.78 15.9688V21H96.6067V19.9659H96.5471C96.4675 20.1316 96.3349 20.3089 96.1493 20.4979C95.9637 20.6868 95.7168 20.8475 95.4086 20.9801C95.1003 21.1127 94.7241 21.179 94.28 21.179ZM94.459 20.125C94.923 20.125 95.3141 20.0339 95.6323 19.8516C95.9538 19.6693 96.1957 19.4339 96.3581 19.1456C96.5239 18.8572 96.6067 18.554 96.6067 18.2358V17.1619C96.557 17.2216 96.4476 17.2763 96.2786 17.326C96.1129 17.3724 95.9206 17.4138 95.7019 17.4503C95.4864 17.4834 95.276 17.5133 95.0705 17.5398C94.8683 17.563 94.7042 17.5829 94.5783 17.5994C94.2734 17.6392 93.9883 17.7038 93.7232 17.7933C93.4614 17.8795 93.2492 18.0104 93.0868 18.1861C92.9277 18.3584 92.8482 18.5937 92.8482 18.892C92.8482 19.2997 92.999 19.608 93.3006 19.8168C93.6055 20.0223 93.9917 20.125 94.459 20.125ZM103.243 13.3636V14.358H99.2852V13.3636H103.243ZM100.439 11.5341H101.612V18.8125C101.612 19.1439 101.66 19.3925 101.756 19.5582C101.855 19.7206 101.981 19.83 102.134 19.8864C102.29 19.9394 102.454 19.9659 102.626 19.9659C102.755 19.9659 102.861 19.9593 102.944 19.946C103.027 19.9295 103.093 19.9162 103.143 19.9062L103.382 20.9602C103.302 20.9901 103.191 21.0199 103.049 21.0497C102.906 21.0829 102.725 21.0994 102.507 21.0994C102.175 21.0994 101.85 21.0282 101.532 20.8857C101.217 20.7431 100.956 20.526 100.747 20.2344C100.541 19.9427 100.439 19.5748 100.439 19.1307V11.5341ZM105.007 21V13.3636H106.181V21H105.007ZM105.604 12.0909C105.375 12.0909 105.178 12.013 105.012 11.8572C104.85 11.7015 104.769 11.5142 104.769 11.2955C104.769 11.0767 104.85 10.8894 105.012 10.7337C105.178 10.5779 105.375 10.5 105.604 10.5C105.833 10.5 106.028 10.5779 106.191 10.7337C106.356 10.8894 106.439 11.0767 106.439 11.2955C106.439 11.5142 106.356 11.7015 106.191 11.8572C106.028 12.013 105.833 12.0909 105.604 12.0909ZM111.432 21.1591C110.743 21.1591 110.138 20.995 109.617 20.6669C109.1 20.3388 108.696 19.8797 108.404 19.2898C108.116 18.6998 107.972 18.0104 107.972 17.2216C107.972 16.4261 108.116 15.7318 108.404 15.1385C108.696 14.5452 109.1 14.0845 109.617 13.7564C110.138 13.4283 110.743 13.2642 111.432 13.2642C112.121 13.2642 112.725 13.4283 113.242 13.7564C113.762 14.0845 114.166 14.5452 114.455 15.1385C114.746 15.7318 114.892 16.4261 114.892 17.2216C114.892 18.0104 114.746 18.6998 114.455 19.2898C114.166 19.8797 113.762 20.3388 113.242 20.6669C112.725 20.995 112.121 21.1591 111.432 21.1591ZM111.432 20.1051C111.956 20.1051 112.387 19.9709 112.725 19.7024C113.063 19.4339 113.313 19.081 113.475 18.6435C113.638 18.206 113.719 17.732 113.719 17.2216C113.719 16.7112 113.638 16.2356 113.475 15.7947C113.313 15.3539 113.063 14.9976 112.725 14.7259C112.387 14.4541 111.956 14.3182 111.432 14.3182C110.908 14.3182 110.477 14.4541 110.139 14.7259C109.801 14.9976 109.551 15.3539 109.389 15.7947C109.226 16.2356 109.145 16.7112 109.145 17.2216C109.145 17.732 109.226 18.206 109.389 18.6435C109.551 19.081 109.801 19.4339 110.139 19.7024C110.477 19.9709 110.908 20.1051 111.432 20.1051ZM117.857 16.4062V21H116.683V13.3636H117.817V14.5568H117.916C118.095 14.169 118.367 13.8575 118.732 13.6222C119.096 13.3835 119.567 13.2642 120.143 13.2642C120.661 13.2642 121.113 13.3703 121.501 13.5824C121.888 13.7912 122.19 14.1094 122.406 14.5369C122.621 14.9612 122.729 15.4981 122.729 16.1477V21H121.555V16.2273C121.555 15.6274 121.4 15.16 121.088 14.8253C120.777 14.4872 120.349 14.3182 119.805 14.3182C119.431 14.3182 119.096 14.3994 118.801 14.5618C118.509 14.7242 118.279 14.9612 118.11 15.2727C117.941 15.5843 117.857 15.9621 117.857 16.4062Z" fill="#2E7EA3"/>
</svg>
