<svg width="24" height="24" viewBox="0 0 24 24" fill="none" xmlns="http://www.w3.org/2000/svg">
<path d="M21 7H18M18 7C18 6.068 18 5.602 17.848 5.235C17.7475 4.99218 17.6001 4.77155 17.4143 4.58572C17.2284 4.3999 17.0078 4.25251 16.765 4.152C16.398 4 15.932 4 15 4C14.068 4 13.602 4 13.235 4.152C12.9922 4.25251 12.7716 4.3999 12.5857 4.58572C12.3999 4.77155 12.2525 4.99218 12.152 5.235C12 5.602 12 6.068 12 7C12 7.932 12 8.398 12.152 8.765C12.2525 9.00782 12.3999 9.22845 12.5857 9.41428C12.7716 9.6001 12.9922 9.74749 13.235 9.848C13.602 10 14.068 10 15 10C15.932 10 16.398 10 16.765 9.848C17.0078 9.74749 17.2284 9.6001 17.4143 9.41428C17.6001 9.22845 17.7475 9.00782 17.848 8.765C18 8.398 18 7.932 18 7ZM21 17H15M6 17H3M6 17C6 16.068 6 15.602 6.152 15.235C6.25251 14.9922 6.3999 14.7716 6.58572 14.5857C6.77155 14.3999 6.99218 14.2525 7.235 14.152C7.602 14 8.068 14 9 14C9.932 14 10.398 14 10.765 14.152C11.0078 14.2525 11.2284 14.3999 11.4143 14.5857C11.6001 14.7716 11.7475 14.9922 11.848 15.235C12 15.602 12 16.068 12 17C12 17.932 12 18.398 11.848 18.765C11.7475 19.0078 11.6001 19.2284 11.4143 19.4143C11.2284 19.6001 11.0078 19.7475 10.765 19.848C10.398 20 9.932 20 9 20C8.068 20 7.602 20 7.235 19.848C6.99218 19.7475 6.77155 19.6001 6.58572 19.4143C6.3999 19.2284 6.25251 19.0078 6.152 18.765C6 18.398 6 17.932 6 17ZM9 7H3" stroke="#808089" stroke-width="1.5" stroke-linecap="round" stroke-linejoin="round"/>
</svg>
