<svg width="22" height="17" viewBox="0 0 22 17" fill="none" xmlns="http://www.w3.org/2000/svg">
<path d="M18.9827 9.51746H0.999092C0.4396 9.51746 0 9.07856 0 8.51996C0 7.96136 0.4396 7.52246 0.999092 7.52246H18.9827C19.5422 7.52246 19.9818 7.96136 19.9818 8.51996C19.9818 9.07856 19.5422 9.51746 18.9827 9.51746Z" fill="black"/>
<path d="M13.9874 16.4999C13.8563 16.5015 13.7264 16.4757 13.606 16.4242C13.4855 16.3726 13.3772 16.2965 13.288 16.2007C12.8884 15.8017 12.8884 15.1832 13.288 14.7842L19.5823 8.49996L13.288 2.2157C12.8884 1.8167 12.8884 1.19825 13.288 0.799251C13.6876 0.40025 14.3071 0.40025 14.7067 0.799251L21.7004 7.78176C22.1 8.18076 22.1 8.79922 21.7004 9.19822L14.7067 16.1807C14.5069 16.3802 14.2471 16.48 14.0074 16.48L13.9874 16.4999Z" fill="black"/>
</svg>
