<svg width="20" height="19" viewBox="0 0 20 19" fill="none" xmlns="http://www.w3.org/2000/svg">
<path d="M6 9.13544V5.07529C6 3.99847 6.42143 2.96575 7.17157 2.20433C7.92172 1.4429 8.93913 1.01514 10 1.01514C11.0609 1.01514 12.0783 1.4429 12.8284 2.20433C13.5786 2.96575 14 3.99847 14 5.07529V9.13544" stroke="black" stroke-linecap="round"/>
<path d="M1.69412 9.81349C1.83912 8.04631 1.91212 7.16323 2.48612 6.62627C3.06012 6.08932 3.93412 6.09033 5.68112 6.09033H14.3201C16.0661 6.09033 16.9401 6.09033 17.5141 6.62627C18.0881 7.16221 18.1611 8.04631 18.3061 9.81349L18.8201 16.0722C18.9041 17.1004 18.9461 17.6151 18.6501 17.9429C18.3521 18.2708 17.8441 18.2708 16.8261 18.2708H3.17412C2.15712 18.2708 1.64812 18.2708 1.35112 17.9429C1.05412 17.6151 1.09612 17.1004 1.18112 16.0722L1.69412 9.81349Z" stroke="black"/>
</svg>
