<svg width="200" height="200" viewBox="0 0 200 200" fill="none" xmlns="http://www.w3.org/2000/svg">
<circle cx="100" cy="100" r="99.5" fill="white" stroke="black"/>
<path d="M85.4167 81.25H112.5C114.158 81.25 115.747 81.9085 116.919 83.0806C118.092 84.2527 118.75 85.8424 118.75 87.5V114.583C118.75 116.241 118.092 117.831 116.919 119.003C115.747 120.175 114.158 120.833 112.5 120.833H85.4167C83.7591 120.833 82.1694 120.175 80.9973 119.003C79.8252 117.831 79.1667 116.241 79.1667 114.583V87.5C79.1667 85.8424 79.8252 84.2527 80.9973 83.0806C82.1694 81.9085 83.7591 81.25 85.4167 81.25ZM85.4167 83.3333C84.3117 83.3333 83.2519 83.7723 82.4705 84.5537C81.6891 85.3351 81.2501 86.3949 81.2501 87.5V111.646L90.1876 102.688L95.3959 107.896L105.813 97.4792L116.667 108.333V87.5C116.667 86.3949 116.228 85.3351 115.446 84.5537C114.665 83.7723 113.605 83.3333 112.5 83.3333H85.4167ZM95.3959 110.854L90.1876 105.646L81.2501 114.583C81.2501 115.688 81.6891 116.748 82.4705 117.53C83.2519 118.311 84.3117 118.75 85.4167 118.75H112.5C113.605 118.75 114.665 118.311 115.446 117.53C116.228 116.748 116.667 115.688 116.667 114.583V111.271L105.813 100.438L95.3959 110.854ZM90.6251 87.5C92.0064 87.5 93.3312 88.0487 94.3079 89.0255C95.2847 90.0022 95.8334 91.327 95.8334 92.7083C95.8334 94.0897 95.2847 95.4144 94.3079 96.3912C93.3312 97.3679 92.0064 97.9167 90.6251 97.9167C89.2437 97.9167 87.919 97.3679 86.9422 96.3912C85.9655 95.4144 85.4167 94.0897 85.4167 92.7083C85.4167 91.327 85.9655 90.0022 86.9422 89.0255C87.919 88.0487 89.2437 87.5 90.6251 87.5ZM90.6251 89.5833C89.7963 89.5833 89.0014 89.9126 88.4154 90.4986C87.8293 91.0847 87.5001 91.8795 87.5001 92.7083C87.5001 93.5371 87.8293 94.332 88.4154 94.918C89.0014 95.5041 89.7963 95.8333 90.6251 95.8333C91.4539 95.8333 92.2487 95.5041 92.8348 94.918C93.4208 94.332 93.7501 93.5371 93.7501 92.7083C93.7501 91.8795 93.4208 91.0847 92.8348 90.4986C92.2487 89.9126 91.4539 89.5833 90.6251 89.5833Z" fill="#1E1E1E"/>
<circle cx="175" cy="25" r="25" fill="#2E7EA3"/>
<path d="M182 25.998H176V31.998H174V25.998H168V23.998H174V17.998H176V23.998H182V25.998Z" fill="white"/>
</svg>
