<svg width="80" height="80" viewBox="0 0 80 80" fill="none" xmlns="http://www.w3.org/2000/svg">
<rect x="0.5" y="0.5" width="79" height="79" stroke="#2E7EA3" stroke-dasharray="5 5"/>
<path d="M27.2979 54.6364C27.2979 53.5625 27.4371 52.5753 27.7156 51.6747C27.9968 50.7713 28.3974 49.9403 28.9173 49.1818H29.8036C29.5991 49.4631 29.4073 49.8097 29.2283 50.2216C29.0522 50.6307 28.8974 51.081 28.7638 51.5724C28.6303 52.0611 28.5252 52.5668 28.4485 53.0895C28.3746 53.6122 28.3377 54.1278 28.3377 54.6364C28.3377 55.3125 28.4031 55.9986 28.5337 56.6946C28.6644 57.3906 28.8406 58.0369 29.0621 58.6335C29.2837 59.2301 29.5309 59.7159 29.8036 60.0909H28.9173C28.3974 59.3324 27.9968 58.5028 27.7156 57.6023C27.4371 56.6989 27.2979 55.7102 27.2979 54.6364ZM34.1172 59.1193C33.4751 59.1193 32.9283 58.9446 32.4766 58.5952C32.0249 58.2429 31.6797 57.733 31.4411 57.0653C31.2024 56.3949 31.0831 55.5852 31.0831 54.6364C31.0831 53.6932 31.2024 52.8878 31.4411 52.2202C31.6825 51.5497 32.0291 51.0384 32.4808 50.6861C32.9354 50.331 33.4808 50.1534 34.1172 50.1534C34.7536 50.1534 35.2976 50.331 35.7493 50.6861C36.2038 51.0384 36.5504 51.5497 36.7891 52.2202C37.0305 52.8878 37.1513 53.6932 37.1513 54.6364C37.1513 55.5852 37.032 56.3949 36.7933 57.0653C36.5547 57.733 36.2095 58.2429 35.7578 58.5952C35.3061 58.9446 34.7592 59.1193 34.1172 59.1193ZM34.1172 58.1818C34.7536 58.1818 35.2479 57.875 35.6001 57.2614C35.9524 56.6477 36.1286 55.7727 36.1286 54.6364C36.1286 53.8807 36.0476 53.2372 35.8857 52.706C35.7266 52.1747 35.4964 51.7699 35.1953 51.4915C34.897 51.2131 34.5376 51.0739 34.1172 51.0739C33.4865 51.0739 32.9936 51.3849 32.6385 52.0071C32.2834 52.6264 32.1058 53.5028 32.1058 54.6364C32.1058 55.392 32.1854 56.0341 32.3445 56.5625C32.5036 57.0909 32.7322 57.4929 33.0305 57.7685C33.3317 58.044 33.6939 58.1818 34.1172 58.1818ZM41.8729 49.8636L39.0604 60.3125H38.1399L40.9524 49.8636H41.8729ZM45.8263 50.1534C46.1843 50.1562 46.5423 50.2244 46.9002 50.358C47.2582 50.4915 47.5849 50.7131 47.8803 51.0227C48.1758 51.3295 48.413 51.7486 48.592 52.2798C48.771 52.8111 48.8604 53.4773 48.8604 54.2784C48.8604 55.054 48.7866 55.7429 48.6388 56.3452C48.494 56.9446 48.2837 57.4503 48.0082 57.8622C47.7354 58.2741 47.4031 58.5866 47.011 58.7997C46.6218 59.0128 46.1815 59.1193 45.69 59.1193C45.2013 59.1193 44.7653 59.0227 44.3817 58.8295C44.0011 58.6335 43.6886 58.3622 43.4442 58.0156C43.2028 57.6662 43.0479 57.2614 42.9798 56.8011H44.0195C44.1133 57.2017 44.2994 57.5327 44.5778 57.794C44.859 58.0526 45.2298 58.1818 45.69 58.1818C46.3633 58.1818 46.8945 57.8878 47.2837 57.2997C47.6758 56.7116 47.8718 55.8807 47.8718 54.8068H47.8036C47.6445 55.0455 47.4556 55.2514 47.2369 55.4247C47.0181 55.598 46.7752 55.7315 46.5082 55.8253C46.2411 55.919 45.957 55.9659 45.6559 55.9659C45.1559 55.9659 44.6971 55.8423 44.2795 55.5952C43.8647 55.3452 43.5323 55.0028 43.2823 54.5682C43.0352 54.1307 42.9116 53.6307 42.9116 53.0682C42.9116 52.5341 43.0309 52.0455 43.2695 51.6023C43.511 51.1562 43.8491 50.8011 44.2837 50.5369C44.7212 50.2727 45.2354 50.1449 45.8263 50.1534ZM45.8263 51.0909C45.4684 51.0909 45.146 51.1804 44.859 51.3594C44.5749 51.5355 44.3491 51.7741 44.1815 52.0753C44.0167 52.3736 43.9343 52.7045 43.9343 53.0682C43.9343 53.4318 44.0138 53.7628 44.1729 54.0611C44.3349 54.3565 44.555 54.5923 44.8335 54.7685C45.1147 54.9418 45.4343 55.0284 45.7923 55.0284C46.0621 55.0284 46.3136 54.9759 46.5465 54.8707C46.7795 54.7628 46.9826 54.6165 47.1559 54.4318C47.332 54.2443 47.4698 54.0327 47.5692 53.7969C47.6687 53.5582 47.7184 53.3097 47.7184 53.0511C47.7184 52.7102 47.636 52.3906 47.4712 52.0923C47.3093 51.794 47.0849 51.5526 46.7979 51.3679C46.5138 51.1832 46.19 51.0909 45.8263 51.0909ZM52.701 54.6364C52.701 55.7102 52.5604 56.6989 52.2791 57.6023C52.0007 58.5028 51.6016 59.3324 51.0817 60.0909H50.1953C50.3999 59.8097 50.5902 59.4631 50.7663 59.0511C50.9453 58.642 51.1016 58.1932 51.2351 57.7045C51.3686 57.2131 51.4723 56.706 51.5462 56.1832C51.6229 55.6577 51.6612 55.142 51.6612 54.6364C51.6612 53.9602 51.5959 53.2741 51.4652 52.5781C51.3345 51.8821 51.1584 51.2358 50.9368 50.6392C50.7152 50.0426 50.468 49.5568 50.1953 49.1818H51.0817C51.6016 49.9403 52.0007 50.7713 52.2791 51.6747C52.5604 52.5753 52.701 53.5625 52.701 54.6364Z" fill="#2E7EA3"/>
<path d="M49.6562 18.9062H29.3438C28.9116 18.9062 28.5625 19.2554 28.5625 19.6875V35.3125C28.5625 35.7446 28.9116 36.0938 29.3438 36.0938H49.6562C50.0884 36.0938 50.4375 35.7446 50.4375 35.3125V19.6875C50.4375 19.2554 50.0884 18.9062 49.6562 18.9062ZM48.6797 34.3359H30.3203V33.3618L33.7017 29.3506L37.3662 33.6963L43.0669 26.9385L48.6797 33.5937V34.3359ZM48.6797 31.167L43.2158 24.6875C43.1377 24.5947 42.9961 24.5947 42.918 24.6875L37.3662 31.2695L33.8506 27.1021C33.7725 27.0093 33.6309 27.0093 33.5527 27.1021L30.3203 30.9351V20.6641H48.6797V31.167ZM34.4219 26.1328C34.704 26.1328 34.9834 26.0772 35.244 25.9693C35.5047 25.8613 35.7415 25.7031 35.9411 25.5036C36.1406 25.304 36.2988 25.0672 36.4068 24.8065C36.5147 24.5459 36.5703 24.2665 36.5703 23.9844C36.5703 23.7022 36.5147 23.4229 36.4068 23.1622C36.2988 22.9015 36.1406 22.6647 35.9411 22.4652C35.7415 22.2657 35.5047 22.1074 35.244 21.9995C34.9834 21.8915 34.704 21.8359 34.4219 21.8359C33.8521 21.8359 33.3056 22.0623 32.9027 22.4652C32.4998 22.8681 32.2734 23.4146 32.2734 23.9844C32.2734 24.5542 32.4998 25.1006 32.9027 25.5036C33.3056 25.9065 33.8521 26.1328 34.4219 26.1328ZM34.4219 23.3008C34.8003 23.3008 35.1055 23.606 35.1055 23.9844C35.1055 24.3628 34.8003 24.668 34.4219 24.668C34.0435 24.668 33.7383 24.3628 33.7383 23.9844C33.7383 23.606 34.0435 23.3008 34.4219 23.3008Z" fill="#2E7EA3"/>
</svg>
