<svg width="27" height="22" viewBox="0 0 27 22" fill="none" xmlns="http://www.w3.org/2000/svg">
<path d="M19.75 21C21.1307 21 22.25 19.8807 22.25 18.5C22.25 17.1193 21.1307 16 19.75 16C18.3693 16 17.25 17.1193 17.25 18.5C17.25 19.8807 18.3693 21 19.75 21Z" stroke="black" stroke-width="1.5" stroke-linecap="round" stroke-linejoin="round"/>
<path d="M7.25 21C8.63071 21 9.75 19.8807 9.75 18.5C9.75 17.1193 8.63071 16 7.25 16C5.86929 16 4.75 17.1193 4.75 18.5C4.75 19.8807 5.86929 21 7.25 21Z" stroke="black" stroke-width="1.5" stroke-linecap="round" stroke-linejoin="round"/>
<path d="M4.75 18.465C3.37875 18.3975 2.525 18.1937 1.915 17.585C1.305 16.9762 1.1025 16.1213 1.035 14.75M9.75 18.5H17.25M22.25 18.465C23.6213 18.3975 24.475 18.1937 25.085 17.585C26 16.6687 26 15.1963 26 12.25V9.75H20.125C19.1937 9.75 18.7287 9.75 18.3525 9.6275C17.9773 9.50558 17.6363 9.2966 17.3574 9.01765C17.0784 8.7387 16.8694 8.39769 16.7475 8.0225C16.625 7.64625 16.625 7.18125 16.625 6.25C16.625 4.85375 16.625 4.15625 16.4412 3.59125C16.2584 3.02847 15.9449 2.51695 15.5265 2.09852C15.108 1.6801 14.5965 1.36663 14.0338 1.18375C13.4688 1 12.7713 1 11.375 1H1M1 6H8.5M1 9.75H6" stroke="black" stroke-width="1.5" stroke-linecap="round" stroke-linejoin="round"/>
<path d="M16.625 3.5H18.9012C20.7212 3.5 21.63 3.5 22.37 3.9425C23.1113 4.38375 23.5425 5.185 24.405 6.7875L26 9.75" stroke="black" stroke-width="1.5" stroke-linecap="round" stroke-linejoin="round"/>
</svg>
