<svg width="24" height="22" viewBox="0 0 24 22" fill="none" xmlns="http://www.w3.org/2000/svg">
<path d="M21.825 11.2C23.0125 10 23.75 8.37502 23.75 6.56252C23.75 4.82204 23.0586 3.15284 21.8279 1.92213C20.5972 0.691427 18.928 2.2565e-05 17.1875 2.2565e-05C15 2.2565e-05 13.0625 1.06252 11.875 2.71252C11.2689 1.87065 10.4708 1.18542 9.54685 0.713683C8.62294 0.241946 7.59987 -0.00270538 6.5625 2.2565e-05C4.82202 2.2565e-05 3.15282 0.691427 1.92211 1.92213C0.691404 3.15284 0 4.82204 0 6.56252C0 8.37502 0.7375 10 1.925 11.2L11.875 21.15L21.825 11.2Z" fill="black"/>
</svg>
