<svg width="30" height="30" viewBox="0 0 30 30" fill="none" xmlns="http://www.w3.org/2000/svg">
<path d="M5.3 15.3125C4.80576 14.8216 4.41417 14.2371 4.14806 13.5933C3.88195 12.9495 3.74664 12.2592 3.75 11.5625C3.75 10.1536 4.30971 8.8023 5.306 7.80602C6.30228 6.80973 7.65354 6.25002 9.0625 6.25002C11.0375 6.25002 12.7625 7.32502 13.675 8.92502H15.075C15.5389 8.11134 16.2101 7.43513 17.0204 6.96524C17.8306 6.49535 18.7509 6.24857 19.6875 6.25002C21.0965 6.25002 22.4477 6.80973 23.444 7.80602C24.4403 8.8023 25 10.1536 25 11.5625C25 13.025 24.375 14.375 23.45 15.3125L14.375 24.375L5.3 15.3125ZM24.325 16.2C25.5125 15 26.25 13.375 26.25 11.5625C26.25 9.82204 25.5586 8.15284 24.3279 6.92213C23.0972 5.69143 21.428 5.00002 19.6875 5.00002C17.5 5.00002 15.5625 6.06252 14.375 7.71252C13.7689 6.87065 12.9708 6.18542 12.0468 5.71368C11.1229 5.24195 10.0999 4.99729 9.0625 5.00002C7.32202 5.00002 5.65282 5.69143 4.42211 6.92213C3.1914 8.15284 2.5 9.82204 2.5 11.5625C2.5 13.375 3.2375 15 4.425 16.2L14.375 26.15L24.325 16.2Z" fill="black"/>
</svg>
