<svg width="68" height="38" viewBox="0 0 68 38" fill="none" xmlns="http://www.w3.org/2000/svg">
<circle cx="19" cy="19" r="18.5" fill="#C0D7E3" stroke="black"/>
<path d="M14.6367 26.0792L19.0221 23.4341L23.4074 26.114L22.2589 21.1022L26.1222 17.761L21.0407 17.3085L19.0221 12.5751L17.0034 17.2737L11.922 17.7262L15.7853 21.1022L14.6367 26.0792ZM12.5136 29L14.2399 21.6034L8.5 16.6305L16.0609 15.9762L19.0221 9L21.9832 15.9748L29.5427 16.6291L23.8028 21.602L25.5305 28.9986L19.0221 25.0727L12.5136 29Z" fill="black"/>
<circle cx="49" cy="19" r="18.5" fill="#C0D7E3" stroke="black"/>
<path d="M53.125 15.63C53.125 13.625 51.278 12 49 12C46.722 12 44.875 13.625 44.875 15.63C44.875 17.635 46 18.74 49 18.74C52 18.74 53.5 19.778 53.5 22.37C53.5 24.963 51.485 26 49 26C46.515 26 44.5 24.375 44.5 22.37M49 10V28" stroke="black" stroke-width="1.2" stroke-linecap="round" stroke-linejoin="round"/>
</svg>
