<svg width="16" height="17" viewBox="0 0 16 17" fill="none" xmlns="http://www.w3.org/2000/svg">
<g clip-path="url(#clip0_72_2967)">
<path fill-rule="evenodd" clip-rule="evenodd" d="M0 4.25C0 4.05109 0.0790176 3.86032 0.21967 3.71967C0.360322 3.57902 0.551088 3.5 0.75 3.5H15.25C15.4489 3.5 15.6397 3.57902 15.7803 3.71967C15.921 3.86032 16 4.05109 16 4.25C16 4.44891 15.921 4.63968 15.7803 4.78033C15.6397 4.92098 15.4489 5 15.25 5H0.75C0.551088 5 0.360322 4.92098 0.21967 4.78033C0.0790176 4.63968 0 4.44891 0 4.25ZM0 8.5C0 8.30109 0.0790176 8.11032 0.21967 7.96967C0.360322 7.82902 0.551088 7.75 0.75 7.75H15.25C15.4489 7.75 15.6397 7.82902 15.7803 7.96967C15.921 8.11032 16 8.30109 16 8.5C16 8.69891 15.921 8.88968 15.7803 9.03033C15.6397 9.17098 15.4489 9.25 15.25 9.25H0.75C0.551088 9.25 0.360322 9.17098 0.21967 9.03033C0.0790176 8.88968 0 8.69891 0 8.5ZM0.75 12C0.551088 12 0.360322 12.079 0.21967 12.2197C0.0790176 12.3603 0 12.5511 0 12.75C0 12.9489 0.0790176 13.1397 0.21967 13.2803C0.360322 13.421 0.551088 13.5 0.75 13.5H15.25C15.4489 13.5 15.6397 13.421 15.7803 13.2803C15.921 13.1397 16 12.9489 16 12.75C16 12.5511 15.921 12.3603 15.7803 12.2197C15.6397 12.079 15.4489 12 15.25 12H0.75Z" fill="#808089"/>
</g>
<defs>
<clipPath id="clip0_72_2967">
<rect width="16" height="16" fill="white" transform="translate(0 0.5)"/>
</clipPath>
</defs>
</svg>
