<svg width="37" height="37" viewBox="0 0 37 37" fill="none" xmlns="http://www.w3.org/2000/svg">
<path d="M9.74983 18.1584C9.74983 17.5529 9.74983 17.2501 9.65883 16.9806C9.39458 16.1966 8.69635 15.8939 7.99636 15.5754C7.21237 15.2167 6.82039 15.0382 6.43014 15.0067C5.98915 14.9717 5.54641 15.0662 5.16842 15.2779C4.66793 15.5579 4.31793 16.0934 3.96094 16.5274C2.31072 18.5328 1.48474 19.5356 1.18375 20.6398C0.93875 21.5323 0.93875 22.4668 1.18375 23.3575C1.62299 24.971 3.01421 26.3219 4.04494 27.5749C4.57168 28.2137 4.83592 28.5339 5.16842 28.7211C5.5529 28.9344 5.992 29.0288 6.43014 28.9924C6.82039 28.9609 7.21238 28.7824 7.99811 28.4236C8.6981 28.1052 9.39458 27.8024 9.65883 27.0184C9.74983 26.7489 9.74983 26.4462 9.74983 25.8424V18.1584ZM27.2495 18.1584C27.2495 17.3954 27.2705 16.7111 27.8865 16.1756C28.1105 15.9814 28.408 15.8466 29.0012 15.5754C29.7869 15.2184 30.1789 15.0382 30.5692 15.0067C31.7364 14.9122 32.3646 15.7101 33.0366 16.5291C34.6886 18.5328 35.5146 19.5356 35.8173 20.6416C36.0609 21.5311 36.0609 22.4697 35.8173 23.3592C35.3763 24.971 33.9833 26.3237 32.9544 27.5749C32.3051 28.3624 31.6839 29.0816 30.5692 28.9924C30.1789 28.9609 29.7869 28.7824 29.0012 28.4236C28.4062 28.1542 28.1105 28.0177 27.8865 27.8234C27.2705 27.2879 27.2495 26.6037 27.2495 25.8424V18.1584Z" stroke="black" stroke-width="1.5" stroke-linecap="round" stroke-linejoin="round"/>
<path d="M4.50007 15.8747V13.2498C4.50007 6.48439 10.7684 1 18.4998 1C26.2311 1 32.4995 6.48439 32.4995 13.2498V15.8747M4.50007 28.1245C4.50007 35.9993 11.4999 35.9993 18.4998 35.9993" stroke="black" stroke-width="1.5" stroke-linecap="round" stroke-linejoin="round"/>
</svg>
