<svg width="20" height="20" viewBox="0 0 20 20" fill="none" xmlns="http://www.w3.org/2000/svg">
<path d="M10.7495 9.99712L16.3775 4.36362C16.4768 4.26384 16.5325 4.12878 16.5324 3.98801C16.5323 3.84725 16.4764 3.71226 16.377 3.61262C16.178 3.41462 15.8275 3.41362 15.6265 3.61362L9.99998 9.24712L4.37148 3.61212C4.17148 3.41462 3.82098 3.41562 3.62198 3.61312C3.57259 3.66231 3.53349 3.72086 3.50696 3.78533C3.48043 3.8498 3.46701 3.9189 3.46748 3.98862C3.46748 4.13062 3.52248 4.26362 3.62198 4.36212L9.24998 9.99662L3.62248 15.6316C3.52317 15.7316 3.46756 15.8668 3.46784 16.0077C3.46812 16.1486 3.52427 16.2836 3.62398 16.3831C3.72048 16.4786 3.85698 16.5336 3.99798 16.5336H4.00098C4.14248 16.5331 4.27898 16.4776 4.37348 16.3811L9.99998 10.7476L15.6285 16.3826C15.728 16.4816 15.861 16.5366 16.002 16.5366C16.0717 16.5367 16.1407 16.523 16.2051 16.4964C16.2695 16.4697 16.328 16.4307 16.3772 16.3814C16.4265 16.3321 16.4656 16.2736 16.4922 16.2092C16.5189 16.1448 16.5325 16.0758 16.5325 16.0061C16.5325 15.8646 16.4775 15.7311 16.3775 15.6326L10.7495 9.99712Z" fill="black"/>
</svg>
