<svg width="30" height="30" viewBox="0 0 30 30" fill="none" xmlns="http://www.w3.org/2000/svg">
<circle cx="15" cy="15" r="14.5" transform="matrix(-1 0 0 1 30 0)" fill="white" stroke="#E2E8F0"/>
<path d="M13.5 9.99977C13.4344 9.99897 13.3694 10.0119 13.3091 10.0377C13.2489 10.0636 13.1946 10.1017 13.15 10.1498C12.95 10.3498 12.95 10.6598 13.15 10.8598L17.3 15.0098L13.15 19.1498C12.95 19.3498 12.95 19.6598 13.15 19.8598C13.35 20.0598 13.66 20.0598 13.86 19.8598L18.35 15.3498C18.55 15.1498 18.55 14.8398 18.35 14.6398L13.85 10.1498C13.75 10.0498 13.62 9.99977 13.5 9.99977Z" fill="black"/>
</svg>
