<svg width="30" height="30" viewBox="0 0 30 30" fill="none" xmlns="http://www.w3.org/2000/svg">
<circle cx="15" cy="15" r="14" fill="white" stroke="#CCCCCC" stroke-width="2"/>
<path fill-rule="evenodd" clip-rule="evenodd" d="M9.43868 16.2171C9.15778 15.9359 9 15.5546 9 15.1571C9 14.7596 9.15778 14.3784 9.43868 14.0971L15.0947 8.43913C15.3761 8.15786 15.7577 7.99991 16.1555 8C16.3525 8.00005 16.5476 8.03889 16.7296 8.11433C16.9116 8.18976 17.0769 8.30029 17.2162 8.43963C17.3554 8.57896 17.4659 8.74436 17.5413 8.92638C17.6166 9.1084 17.6554 9.30348 17.6553 9.50048C17.6553 9.69748 17.6164 9.89254 17.541 10.0745C17.4656 10.2565 17.355 10.4219 17.2157 10.5611L12.6207 15.1571L17.2167 19.7531C17.36 19.8914 17.4744 20.0569 17.5531 20.2399C17.6318 20.4228 17.6732 20.6196 17.6751 20.8188C17.6769 21.018 17.639 21.2155 17.5637 21.3999C17.4883 21.5843 17.377 21.7518 17.2363 21.8927C17.0955 22.0336 16.9281 22.1451 16.7438 22.2206C16.5595 22.2961 16.362 22.3341 16.1628 22.3325C15.9636 22.3309 15.7668 22.2896 15.5837 22.211C15.4007 22.1325 15.2351 22.0183 15.0967 21.8751L9.43668 16.2171H9.43868Z" fill="#CCCCCC"/>
</svg>
