<svg width="30" height="30" viewBox="0 0 30 30" fill="none" xmlns="http://www.w3.org/2000/svg">
<circle cx="15" cy="15" r="14" transform="matrix(1 0 0 -1 0 30)" fill="white" stroke="black" stroke-width="2"/>
<path fill-rule="evenodd" clip-rule="evenodd" d="M10.4387 13.7829C10.1578 14.0641 10 14.4454 10 14.8429C10 15.2404 10.1578 15.6216 10.4387 15.9029L16.0947 21.5609C16.3761 21.8421 16.7577 22.0001 17.1555 22C17.3525 22 17.5476 21.9611 17.7296 21.8857C17.9116 21.8102 18.0769 21.6997 18.2162 21.5604C18.3554 21.421 18.4659 21.2556 18.5413 21.0736C18.6166 20.8916 18.6554 20.6965 18.6553 20.4995C18.6553 20.3025 18.6164 20.1075 18.541 19.9255C18.4656 19.7435 18.355 19.5781 18.2157 19.4389L13.6207 14.8429L18.2167 10.2469C18.36 10.1086 18.4744 9.94311 18.5531 9.76014C18.6318 9.57717 18.6732 9.38036 18.6751 9.18119C18.6769 8.98203 18.639 8.78449 18.5637 8.60011C18.4883 8.41573 18.377 8.2482 18.2363 8.1073C18.0955 7.96639 17.9281 7.85493 17.7438 7.77942C17.5595 7.70392 17.362 7.66587 17.1628 7.66751C16.9636 7.66914 16.7668 7.71043 16.5837 7.78895C16.4007 7.86748 16.2351 7.98167 16.0967 8.12487L10.4367 13.7829H10.4387Z" fill="black"/>
</svg>
