<svg width="30" height="30" viewBox="0 0 30 30" fill="none" xmlns="http://www.w3.org/2000/svg">
<circle cx="15" cy="15" r="14" transform="matrix(-1 0 0 1 30 0)" fill="white" stroke="black" stroke-width="2"/>
<path fill-rule="evenodd" clip-rule="evenodd" d="M19.5613 16.2171C19.8422 15.9359 20 15.5546 20 15.1571C20 14.7596 19.8422 14.3784 19.5613 14.0971L13.9053 8.43913C13.6239 8.15786 13.2423 7.99991 12.8445 8C12.6475 8.00005 12.4524 8.03889 12.2704 8.11433C12.0884 8.18976 11.9231 8.30029 11.7838 8.43963C11.6446 8.57896 11.5341 8.74436 11.4587 8.92638C11.3834 9.1084 11.3446 9.30348 11.3447 9.50048C11.3447 9.69748 11.3836 9.89254 11.459 10.0745C11.5344 10.2565 11.645 10.4219 11.7843 10.5611L16.3793 15.1571L11.7833 19.7531C11.64 19.8914 11.5256 20.0569 11.4469 20.2399C11.3682 20.4228 11.3268 20.6196 11.3249 20.8188C11.3231 21.018 11.361 21.2155 11.4363 21.3999C11.5117 21.5843 11.623 21.7518 11.7637 21.8927C11.9045 22.0336 12.0719 22.1451 12.2562 22.2206C12.4405 22.2961 12.638 22.3341 12.8372 22.3325C13.0364 22.3309 13.2332 22.2896 13.4163 22.211C13.5993 22.1325 13.7649 22.0183 13.9033 21.8751L19.5633 16.2171H19.5613Z" fill="black"/>
</svg>
