<svg width="30" height="30" viewBox="0 0 30 30" fill="none" xmlns="http://www.w3.org/2000/svg">
<circle cx="15" cy="15" r="14" transform="rotate(-180 15 15)" fill="white" stroke="#CCCCCC" stroke-width="2"/>
<path fill-rule="evenodd" clip-rule="evenodd" d="M20.5613 13.7829C20.8422 14.0641 21 14.4454 21 14.8429C21 15.2404 20.8422 15.6216 20.5613 15.9029L14.9053 21.5609C14.6239 21.8421 14.2423 22.0001 13.8445 22C13.6475 22 13.4524 21.9611 13.2704 21.8857C13.0884 21.8102 12.9231 21.6997 12.7838 21.5604C12.6446 21.421 12.5341 21.2556 12.4587 21.0736C12.3834 20.8916 12.3446 20.6965 12.3447 20.4995C12.3447 20.3025 12.3836 20.1075 12.459 19.9255C12.5344 19.7435 12.645 19.5781 12.7843 19.4389L17.3793 14.8429L12.7833 10.2469C12.64 10.1086 12.5256 9.94311 12.4469 9.76014C12.3682 9.57717 12.3268 9.38036 12.3249 9.18119C12.3231 8.98203 12.361 8.78449 12.4363 8.60011C12.5117 8.41573 12.623 8.2482 12.7637 8.1073C12.9045 7.96639 13.0719 7.85493 13.2562 7.77942C13.4405 7.70392 13.638 7.66587 13.8372 7.66751C14.0364 7.66914 14.2332 7.71043 14.4163 7.78895C14.5993 7.86748 14.7649 7.98167 14.9033 8.12487L20.5633 13.7829H20.5613Z" fill="#CCCCCC"/>
</svg>
