<svg width="60" height="60" viewBox="0 0 60 60" fill="none" xmlns="http://www.w3.org/2000/svg">
<circle cx="30" cy="30" r="30" fill="white"/>
<path d="M36.1914 23.5511C36.0399 22.2064 35.4149 21.1648 34.3164 20.4261C33.2179 19.678 31.8353 19.304 30.1687 19.304C28.9755 19.304 27.9433 19.4934 27.0721 19.8722C26.2009 20.2415 25.5238 20.7528 25.0408 21.4062C24.5674 22.0502 24.3306 22.7841 24.3306 23.608C24.3306 24.2992 24.4916 24.8958 24.8136 25.3977C25.145 25.8996 25.5759 26.321 26.1062 26.6619C26.646 26.9934 27.2236 27.2727 27.8391 27.5C28.4547 27.7178 29.0465 27.8977 29.6147 28.0398L32.4556 28.7784C33.3836 29.0057 34.3353 29.3134 35.3107 29.7017C36.2861 30.09 37.1905 30.6013 38.0238 31.2358C38.8571 31.8703 39.5295 32.6562 40.0408 33.5938C40.5617 34.5312 40.8221 35.6534 40.8221 36.9602C40.8221 38.608 40.396 40.071 39.5437 41.3494C38.7009 42.6278 37.4746 43.6364 35.8647 44.375C34.2643 45.1136 32.3278 45.483 30.055 45.483C27.877 45.483 25.9925 45.1373 24.4016 44.446C22.8107 43.7547 21.5655 42.7746 20.6658 41.5057C19.7662 40.2273 19.2691 38.7121 19.1744 36.9602H23.5778C23.663 38.0114 24.0039 38.8873 24.6005 39.5881C25.2066 40.2794 25.9783 40.7955 26.9158 41.1364C27.8628 41.4678 28.8997 41.6335 30.0266 41.6335C31.2672 41.6335 32.3704 41.4394 33.3363 41.0511C34.3117 40.6534 35.0787 40.1042 35.6374 39.4034C36.1961 38.6932 36.4755 37.8646 36.4755 36.9176C36.4755 36.0559 36.2293 35.3504 35.7369 34.8011C35.2539 34.2519 34.5958 33.7973 33.7624 33.4375C32.9386 33.0777 32.0058 32.7604 30.9641 32.4858L27.5266 31.5483C25.1971 30.9138 23.3505 29.9811 21.9869 28.75C20.6327 27.5189 19.9556 25.8902 19.9556 23.8636C19.9556 22.1875 20.4102 20.7244 21.3192 19.4744C22.2283 18.2244 23.4594 17.2538 25.0124 16.5625C26.5655 15.8617 28.3174 15.5114 30.2681 15.5114C32.2378 15.5114 33.9755 15.857 35.4812 16.5483C36.9963 17.2396 38.1895 18.1913 39.0607 19.4034C39.9319 20.6061 40.3865 21.9886 40.4244 23.5511H36.1914Z" fill="#2E7EA3"/>
</svg>
