<svg width="37" height="37" viewBox="0 0 37 37" fill="none" xmlns="http://www.w3.org/2000/svg">
<path d="M20.25 36.0001C18.8185 36.0001 17.45 35.4033 14.7147 34.2081C11.521 32.8151 9.078 31.7476 7.38225 30.7501H1M20.25 36.0001C21.6815 36.0001 23.05 35.4033 25.7853 34.2081C32.5945 31.2366 36 29.7526 36 27.25V8.875M20.25 36.0001V16.75M4.5 8.875V14.125" stroke="black" stroke-linecap="round" stroke-linejoin="round"/>
<path d="M29.2397 4.52801L11.2673 13.2238M1 20.25H6.25M1 25.5001H6.25M13.8205 14.4593L8.70875 11.9865C5.9035 10.6285 4.5 9.94952 4.5 8.87502C4.5 7.80052 5.9035 7.12152 8.70875 5.76351L13.8187 3.29076C16.9775 1.763 18.5525 1 20.25 1C21.9475 1 23.5242 1.763 26.6795 3.29076L31.7912 5.76351C34.5965 7.12152 36 7.80052 36 8.87502C36 9.94952 34.5965 10.6285 31.7912 11.9865L26.6812 14.4593C23.5225 15.987 21.9475 16.75 20.25 16.75C18.5525 16.75 16.9758 15.987 13.8205 14.4593Z" stroke="black" stroke-linecap="round" stroke-linejoin="round"/>
</svg>
