<svg width="17" height="22" viewBox="0 0 17 22" fill="none" xmlns="http://www.w3.org/2000/svg">
<path d="M1.96229 21.8571C1.4029 21.8571 0.936214 21.6701 0.562214 21.2961C0.188214 20.9221 0.000809524 20.4555 0 19.8961V6.81821C0 6.25964 0.187405 5.79336 0.562214 5.41936C0.937024 5.04536 1.40371 4.85795 1.96229 4.85714H4.25V4.25C4.25 3.06971 4.66326 2.06631 5.48979 1.23979C6.31631 0.413262 7.31971 0 8.5 0C9.68029 0 10.6837 0.413262 11.5102 1.23979C12.3367 2.06631 12.75 3.06971 12.75 4.25V4.85714H15.0389C15.5975 4.85714 16.0638 5.04455 16.4378 5.41936C16.8118 5.79417 16.9992 6.26086 17 6.81943V19.8961C17 20.4546 16.8126 20.9213 16.4378 21.2961C16.063 21.671 15.5967 21.858 15.0389 21.8571H1.96229ZM1.96229 20.6429H15.0389C15.2251 20.6429 15.3963 20.5651 15.5526 20.4097C15.7088 20.2543 15.7865 20.0827 15.7857 19.8949V6.81943C15.7857 6.63243 15.708 6.46081 15.5526 6.30457C15.3971 6.14833 15.2255 6.07062 15.0377 6.07143H12.75V9.10714C12.75 9.28038 12.6921 9.42488 12.5764 9.54064C12.4606 9.65641 12.3161 9.71429 12.1429 9.71429C11.9696 9.71429 11.8251 9.65641 11.7094 9.54064C11.5936 9.42488 11.5357 9.28038 11.5357 9.10714V6.07143H5.46429V9.10714C5.46429 9.28038 5.40641 9.42488 5.29064 9.54064C5.17488 9.65641 5.03038 9.71429 4.85714 9.71429C4.6839 9.71429 4.5394 9.65641 4.42364 9.54064C4.30788 9.42488 4.25 9.28038 4.25 9.10714V6.07143H1.96229C1.77529 6.07143 1.60367 6.14914 1.44743 6.30457C1.29119 6.46 1.21348 6.63162 1.21429 6.81943V19.8961C1.21429 20.0823 1.292 20.2535 1.44743 20.4097C1.60286 20.566 1.77407 20.6437 1.96107 20.6429M5.46429 4.85714H11.5357V4.25C11.5357 3.39514 11.2435 2.67548 10.659 2.091C10.0745 1.50652 9.35486 1.21429 8.5 1.21429C7.64514 1.21429 6.92548 1.50652 6.341 2.091C5.75652 2.67548 5.46429 3.39514 5.46429 4.25V4.85714Z" fill="black"/>
</svg>
