<svg width="24" height="24" viewBox="0 0 24 24" fill="none" xmlns="http://www.w3.org/2000/svg">
<path d="M12 14C13.1046 14 14 13.1046 14 12C14 10.8954 13.1046 10 12 10C10.8954 10 10 10.8954 10 12C10 13.1046 10.8954 14 12 14Z" stroke="white" stroke-width="1.5"/>
<path d="M6 12H10M14 12H18M9 17.196L11 13.732M13 10.268L15 6.80401M15 17.196L13 13.732M11 10.268L9 6.80401M7 3.33801C8.51945 2.45874 10.2445 1.99712 12 2.00001C17.523 2.00001 22 6.47701 22 12C22 17.523 17.523 22 12 22C6.477 22 2 17.523 2 12C2 10.179 2.487 8.47001 3.338 7.00001" stroke="white" stroke-width="1.5" stroke-linecap="round"/>
<path d="M15 17.197C13.7393 17.9246 12.2571 18.1692 10.8295 17.8851C9.40189 17.601 8.12624 16.8077 7.24019 15.6528C6.35414 14.498 5.91811 13.0604 6.01335 11.6079C6.10859 10.1554 6.72859 8.78712 7.75786 7.75786C8.78712 6.72859 10.1554 6.10859 11.6079 6.01335C13.0604 5.91811 14.498 6.35414 15.6528 7.24019C16.8077 8.12624 17.601 9.40189 17.8851 10.8295C18.1692 12.2571 17.9246 13.7393 17.197 15" stroke="white" stroke-width="1.5" stroke-linecap="round"/>
</svg>
