<svg width="60" height="60" viewBox="0 0 60 60" fill="none" xmlns="http://www.w3.org/2000/svg">
<path d="M15.8275 20H44.175C44.8959 19.9999 45.6083 20.1557 46.2634 20.4568C46.9185 20.7578 47.5007 21.1969 47.9701 21.744C48.4396 22.2911 48.7852 22.9333 48.9832 23.6265C49.1813 24.3196 49.2271 25.0475 49.1175 25.76L45.98 46.14C45.7076 47.9111 44.8101 49.5262 43.45 50.6928C42.0898 51.8594 40.3569 52.5005 38.565 52.5H21.435C19.6435 52.4999 17.9112 51.8586 16.5516 50.692C15.1919 49.5254 14.2948 47.9107 14.0225 46.14L10.885 25.76C10.7754 25.0475 10.8212 24.3196 11.0193 23.6265C11.2173 22.9333 11.5629 22.2911 12.0324 21.744C12.5018 21.1969 13.084 20.7578 13.7391 20.4568C14.3942 20.1557 15.1066 19.9999 15.8275 20Z" stroke="#13899C" stroke-width="2" stroke-linecap="round" stroke-linejoin="round"/>
<path d="M22.5 27.5V15C22.5 13.0109 23.2902 11.1032 24.6967 9.6967C26.1032 8.29018 28.0109 7.5 30 7.5C31.9891 7.5 33.8968 8.29018 35.3033 9.6967C36.7098 11.1032 37.5 13.0109 37.5 15V27.5" stroke="#13899C" stroke-width="2" stroke-linecap="round" stroke-linejoin="round"/>
</svg>
