<svg width="60" height="60" viewBox="0 0 60 60" fill="none" xmlns="http://www.w3.org/2000/svg">
<rect x="0.15" y="0.15" width="59.7" height="59.7" stroke="black" stroke-width="0.3"/>
<path d="M37.5 25H20.5M35.833 27.5L35.373 34.4C35.196 37.054 35.108 38.381 34.243 39.19C33.378 39.999 32.048 40 29.387 40H28.613C25.953 40 24.623 40 23.757 39.19C22.892 38.381 22.804 37.054 22.627 34.4L22.167 27.5" stroke="#1E1E1E" stroke-width="1.5" stroke-linecap="round"/>
<path opacity="0.5" d="M26.1699 23C26.3765 22.4145 26.7597 21.9074 27.2665 21.5488C27.7734 21.1902 28.379 20.9976 28.9999 20.9976C29.6208 20.9976 30.2265 21.1902 30.7333 21.5488C31.2402 21.9074 31.6233 22.4145 31.8299 23" stroke="#1E1E1E" stroke-width="1.5" stroke-linecap="round"/>
</svg>
